# xmcd CD database file
#
# Track frame offsets:
#	150
#	8324
#	23632
#	58251
#	73788
#	86762
#	102679
#	119299
#	134103
#	148347
#	161333
#	172121
#	187027
#	206572
#	222187
#	236503
#	251074
#	264123
#	280275
#	295896
#	314068
#	325671
#
# Disc length: 4474 seconds
#
# Revision: 0
# Processed by: cddbd v1.5PL3 Copyright (c) Steve Scherf et al.
# Submitted via: CDex 1.51
#
DISCID=58117816
DTITLE=Benny Goodman - Still
DYEAR=1900
DGENRE=Jazz
TTITLE0=Memories of you
TTITLE1=Moonglow
TTITLE2=One o'clock Jump
TTITLE3=Rhapsody in blue
TTITLE4=Sentimental Journey
TTITLE5=Stardust
TTITLE6=Eleventh Track
TTITLE7=Stompin at the Savoy
TTITLE8=Tea for Two
TTITLE9=Wang Wang Blues
TTITLE10=Why don't you do right
TTITLE11=Flying Home
TTITLE12=After you've Gone
TTITLE13=Ain't Misbehaving
TTITLE14=And the Angels Sings
TTITLE15=Blue Moon
TTITLE16=Body and Soul
TTITLE17=Christopher Columbus
TTITLE18=Clarinet a la King
TTITLE19=Dream a little Dream of me
TTITLE20=Lets Dance
TTITLE21=Clarinet marmalade
EXTD=
EXTT0=
EXTT1=
EXTT2=
EXTT3=
EXTT4=
EXTT5=
EXTT6=
EXTT7=
EXTT8=
EXTT9=
EXTT10=
EXTT11=
EXTT12=
EXTT13=
EXTT14=
EXTT15=
EXTT16=
EXTT17=
EXTT18=
EXTT19=
EXTT20=
EXTT21=
PLAYORDER=
